<svg width="500" height="500" viewBox="0 0 500 500" xmlns="http://www.w3.org/2000/svg">
  <rect width="500" height="500" rx="111" fill="#993C1D"/>
  <g transform="translate(250, 250)">
    <line x1="0" y1="-110" x2="0" y2="-74" stroke="#FAECE7" stroke-width="3.5" opacity="0.9"/>
    <line x1="0" y1="110" x2="0" y2="74" stroke="#FAECE7" stroke-width="3.5" opacity="0.9"/>
    <line x1="-110" y1="0" x2="-74" y2="0" stroke="#FAECE7" stroke-width="3.5" opacity="0.9"/>
    <line x1="110" y1="0" x2="74" y2="0" stroke="#FAECE7" stroke-width="3.5" opacity="0.9"/>
    <line x1="-78" y1="-78" x2="-52" y2="-52" stroke="#FAECE7" stroke-width="3.5" opacity="0.7"/>
    <line x1="78" y1="-78" x2="52" y2="-52" stroke="#FAECE7" stroke-width="3.5" opacity="0.7"/>
    <line x1="-78" y1="78" x2="-52" y2="52" stroke="#FAECE7" stroke-width="3.5" opacity="0.7"/>
    <line x1="78" y1="78" x2="52" y2="52" stroke="#FAECE7" stroke-width="3.5" opacity="0.7"/>
    <circle cx="0" cy="0" r="108" fill="none" stroke="#FAECE7" stroke-width="2" opacity="0.35"/>
    <circle cx="0" cy="0" r="70" fill="#F5C4B3" stroke="#FAECE7" stroke-width="4"/>
    <path d="M0,0 Q10,-22 26,-15 Q42,-3 34,20 Q23,42 0,39 Q-26,35 -33,12 Q-42,-19 -19,-38 Q3,-55 30,-48 Q56,-39 59,-12" fill="none" stroke="#4A1B0C" stroke-width="4.5" stroke-linecap="round"/>
    <circle cx="0" cy="0" r="8" fill="#4A1B0C"/>
    <path d="M-70,0 Q-100,-28 -124,-10 Q-100,4 -70,8 Z" fill="#FAECE7" opacity="0.9"/>
    <path d="M-70,7 Q-97,20 -121,15 Q-97,26 -70,16 Z" fill="#F5C4B3" opacity="0.65"/>
    <path d="M70,0 Q100,-28 124,-10 Q100,4 70,8 Z" fill="#FAECE7" opacity="0.9"/>
    <path d="M70,7 Q97,20 121,15 Q97,26 70,16 Z" fill="#F5C4B3" opacity="0.65"/>
  </g>
</svg>
